<svg xmlns="http://www.w3.org/2000/svg" xmlns:xlink="http://www.w3.org/1999/xlink" width="351" height="280" viewBox="0 0 351 280">
    <defs>
        <filter id="bxtidc5dga" width="124.1%" height="137.8%" x="-12.1%" y="-13.1%" filterUnits="objectBoundingBox">
            <feOffset dy="6" in="SourceAlpha" result="shadowOffsetOuter1"/>
            <feGaussianBlur in="shadowOffsetOuter1" result="shadowBlurOuter1" stdDeviation="5.5"/>
            <feComposite in="shadowBlurOuter1" in2="SourceAlpha" operator="out" result="shadowBlurOuter1"/>
            <feColorMatrix in="shadowBlurOuter1" values="0 0 0 0 0 0 0 0 0 0 0 0 0 0 0 0 0 0 0.08 0"/>
        </filter>
        <rect id="1m0k5v209b" width="161.818" height="103.202" x="0" y="0" rx="7.152"/>
    </defs>
    <g fill="none" fill-rule="evenodd">
        <g>
            <g>
                <g>
                    <path fill="#F2F2F2" d="M195.446 269.56c78.206 0 110.63-64.147 110.63-125.203 0-61.057-20.328-129.602-98.533-129.602-78.206 0-194.144 60.265-206.69 153.677C-11.696 261.843 117.24 269.56 195.445 269.56z" transform="translate(-885 -281) translate(885 281.75) translate(.212)"/>
                    <g>
                        <path fill="#F2F2F2" d="M0 34.099s4.436-6.336 12.386-10.141c6.45-3.088 25.875-9.953 30.911-12.606C52.505 6.502 58.537 0 58.537 0l25.196 15.305s-5.132 6.226-12.04 11.218c-6.995 5.054-25.615 7.622-34.817 14.952-5.957 4.745-12.784 17.199-12.784 17.199L0 34.099" transform="translate(-885 -281) translate(885 281.75) translate(.212) rotate(-20 182.555 -523.315)"/>
                        <path fill="#979797" d="M57.784 2.012L79.08 14.745c.212.093.407.205.564.338l1.05.628-.543.662c-.05.063-1.274 1.549-3.646 3.667-2.178 1.946-5.782 4.814-10.577 7.429-4.272 2.33-8.809 3.664-13.612 5.076l-.594.174-1.19.352c-6.154 1.832-12.42 3.934-17.994 8.504-3.157 2.589-6.595 7.712-8.452 10.692l-.139.224-.77 1.653-.136-.155-.139.236-.125.216-.069.12-.5.887L2.192 34.223l.289-.48c.125-.206 3.173-5.125 13.193-9.745 3.135-1.446 7.68-3.272 12.492-5.205 6.347-2.55 12.91-5.187 16.487-7.065 1.453-.763 3.108-1.848 4.732-3.01l.54-.39.536-.394c3.644-2.698 6.862-5.516 6.911-5.56l.412-.362zM45.354 13.04c-3.202 1.682-8.687 3.933-14.3 6.194l-1.163.468-1.162.467c-4.794 1.926-9.322 3.745-12.423 5.175-4.994 2.303-8.138 4.673-9.897 6.256-.158.142-.308.28-.45.415 2.57.348 4.078 4.07 1.248 5.075-.068.024-.137.044-.206.06l14.91 15.81.09-.153-1.334-1.515c-.453-1.554.06-2.898 1.602-3.005l.17-.006c.502-.006 1.247.424 1.82.945 1.972-2.961 4.7-6.643 7.323-8.794 6.349-5.205 13.444-7.291 20.307-9.309 4.723-1.389 9.185-2.7 13.316-4.953 5.525-3.013 9.471-6.383 11.688-8.529-2.284-.177-2.855-2.455-.906-3.009L60.925 5.625c-.358.654-1.32.984-2.052.946-1.415-.073-1.768-.91-1.728-2.143v.105c-2.383 2.012-7.745 6.383-11.79 8.506z" opacity=".387" transform="translate(-885 -281) translate(885 281.75) translate(.212) rotate(-20 182.555 -523.315)"/>
                        <path fill="#CACACA" d="M34.614 18.603c-2.708 1.315-4.462 4.646-.659 9.11 3.804 4.462 11.033 5.406 14.19 4.328 3.155-1.078 4.042-6.74.945-9.823-3.097-3.082-8.33-6.596-14.476-3.615" transform="translate(-885 -281) translate(885 281.75) translate(.212) rotate(-20 182.555 -523.315) rotate(-36 41.387 24.96)"/>
                        <path fill="#CACACA" d="M23.239 34.413c.646 1.009.702 2.286.124 2.853-.578.567-1.57.209-2.217-.8-.646-1.009-.702-2.286-.124-2.853.578-.567 1.57-.209 2.217.8M63.814 12.588c.965.92 1.23 2.235.594 2.936-.637.701-1.935.523-2.9-.398-.965-.92-1.23-2.235-.594-2.936.637-.701 1.935-.523 2.9.398" transform="translate(-885 -281) translate(885 281.75) translate(.212) rotate(-20 182.555 -523.315)"/>
                    </g>
                    <g>
                        <g>
                            <g>
                                <g>
                                    <path fill="#FFF" stroke="#979797" stroke-width="1.704" d="M110.034 2.876c3.992-.492 7.806.68 10.745 2.973 2.939 2.293 5.003 5.707 5.495 9.698h0l28.396 232.46c.487 3.989-.687 7.798-2.98 10.734-2.294 2.935-5.706 4.996-9.694 5.488h0l-94.353 11.645c-3.992.493-7.806-.68-10.745-2.972-2.939-2.294-5.003-5.708-5.496-9.699h0L3.007 30.743c-.488-3.988.687-7.798 2.98-10.733 2.293-2.936 5.706-4.997 9.694-5.489h0z" transform="translate(-885 -281) translate(885 281.75) translate(.212) translate(75.235) translate(.698) translate(.837)"/>
                                    <text fill="#54585A" font-family="TheSansArabic-ExtraBold, TheSansArabic" font-size="16.5" font-weight="600" opacity=".439" transform="translate(-885 -281) translate(885 281.75) translate(.212) translate(75.235) translate(.698) translate(.837) rotate(-6 39.747 70.953)">
                                        <tspan x="25.21" y="75.953">PAY</tspan>
                                    </text>
                                    <text fill="#54585A" font-family="TheSansArabic-ExtraBold, TheSansArabic" font-size="16.5" font-weight="600" transform="translate(-885 -281) translate(885 281.75) translate(.212) translate(75.235) translate(.698) translate(.837) rotate(-6 59.422 88.919)">
                                        <tspan x="27.44" y="93.919">KWD 00</tspan>
                                    </text>
                                    <path stroke="#979797" stroke-linecap="round" stroke-width="1.697" d="M80.958 266.142L110.396 262.389" transform="translate(-885 -281) translate(885 281.75) translate(.212) translate(75.235) translate(.698) translate(.837)"/>
                                    <path fill="#979797" d="M41.178 11.888c-.002 3.914 3.168 7.089 7.082 7.091h.009l29.488-.018c3.92-.003 7.097-3.18 7.1-7.1l-43.679.027z" transform="translate(-885 -281) translate(885 281.75) translate(.212) translate(75.235) translate(.698) translate(.837) rotate(-7 63.015 15.422)"/>
                                </g>
                                <path stroke="#979797" stroke-width="1.99" d="M7.772 77.293L9.414 90.18M10.277 94.979L11.76 107.835" transform="translate(-885 -281) translate(885 281.75) translate(.212) translate(75.235) translate(.698) translate(.837)"/>
                            </g>
                        </g>
                    </g>
                    <g>
                        <path fill="#FFF" stroke="#D9D9D9" stroke-width=".77" d="M.846 53.09s6.41-9.74 17.9-15.59c9.32-4.747 37.39-15.3 44.668-19.38C76.719 10.665 85.435.67 85.435.67l36.411 23.528s-7.417 9.572-17.398 17.244C94.339 49.213 67.43 53.161 54.135 64.428 45.526 71.723 35.66 90.87 35.66 90.87L.846 53.09" transform="translate(-885 -281) translate(885 281.75) translate(.212) translate(154.254 38.93)"/>
                        <path fill="#979797" d="M84.704 3.97l30.425 19.652c.31.145.592.32.82.529l1.497.968-.774 1.022-.075.098-.078.098c-.497.63-2.19 2.698-5.059 5.465-3.112 3.004-8.264 7.432-15.118 11.47-6.106 3.597-12.59 5.657-19.456 7.837l-1.227.39c-9.217 2.936-18.675 6.142-27.04 13.551-4.63 4.1-9.68 12.318-12.281 16.856l-1.1 2.551-.194-.24c-.298.545-.464.862-.475.883l-.716 1.37L5.246 53.7l.413-.74c.179-.32 4.536-7.914 18.856-15.047 4.481-2.232 10.978-5.052 17.856-8.037 9.071-3.937 18.452-8.008 23.564-10.907 2.337-1.325 5.038-3.28 7.632-5.325l.575-.456c5.246-4.19 9.902-8.592 9.973-8.66l.59-.559zM66.938 20.993c-4.617 2.618-12.552 6.132-20.647 9.653l-1.247.542-1.868.81c-6.853 2.975-13.325 5.784-17.757 7.991-7.137 3.555-11.632 7.215-14.146 9.66-.226.22-.44.434-.644.642 3.674.533 5.83 6.28 1.785 7.833-.097.037-.195.068-.294.093l21.31 24.41c.04-.076.084-.154.128-.235l-1.905-2.341c-.67-2.486.14-4.622 2.53-4.65.72-.008 1.786.656 2.604 1.46 2.819-4.574 6.718-10.257 10.466-13.577 9.074-8.037 19.216-11.258 29.024-14.373 6.751-2.144 13.128-4.17 19.033-7.647 7.897-4.653 13.537-9.855 16.706-13.168-3.265-.274-4.08-3.79-1.294-4.645L89.194 9.546c-.511 1.01-1.887 1.52-2.934 1.461-2.022-.113-2.528-1.406-2.47-3.308l-.002.163c-3.406 3.107-11.069 9.854-16.85 13.132zM83.967 7.699h.353c.172-.294.332-.554.49-.777l.132-.123c-.254.237-.583.541-.975.9z" opacity=".795" transform="translate(-885 -281) translate(885 281.75) translate(.212) translate(154.254 38.93)"/>
                        <path fill="#ACACAC" d="M50.84 30.284c-4.048 2.108-6.791 7.2-1.414 13.723 5.378 6.522 15.967 7.587 20.664 5.813 4.696-1.775 6.276-10.33 1.871-14.81-4.405-4.482-11.934-9.507-21.12-4.726" transform="translate(-885 -281) translate(885 281.75) translate(.212) translate(154.254 38.93) rotate(-36 60.497 39.466)"/>
                        <path fill="#ACACAC" d="M35.313 54.053c.905 1.588.983 3.6.173 4.493-.81.892-2.2.328-3.106-1.26-.906-1.59-.984-3.6-.174-4.493.81-.893 2.2-.329 3.107 1.26M93.11 21.77c1.268 1.45 1.618 3.52.781 4.625-.836 1.104-2.542.823-3.81-.627-1.267-1.45-1.616-3.52-.78-4.624.837-1.104 2.542-.824 3.81.626" transform="translate(-885 -281) translate(885 281.75) translate(.212) translate(154.254 38.93)"/>
                    </g>
                    <g fill="#D1252F">
                        <g>
                            <path d="M41.43 5.892l-.12.41-.297-.402c-.565-.714-1.18-1.397-1.83-2.032-.665-.684-1.38-1.326-2.13-1.91l-.333-.261.408-.113c2.426-.667 4.334-.837 4.75-.42.401.401.222 2.302-.447 4.728zm-.522 1.71c-.287.861-.597 1.701-.948 2.567l-.41 1.011v-.037c-2.132 4.975-4.992 9.452-7.933 12.396-1.188 1.195-2.471 2.32-3.811 3.342l-.177.134-.127-.182c-.694-.998-2.301-2.756-4.912-5.377l-.15-.15 2.484-2.488c.088-.088.137-.205.137-.33 0-.124-.049-.242-.137-.33-.182-.182-.477-.182-.66 0l-2.484 2.487-.15-.15c-2.687-2.673-4.394-4.237-5.373-4.922l-.182-.126.133-.177c1.018-1.342 2.138-2.626 3.328-3.816 3.169-3.173 8.061-6.245 13.422-8.428.831-.336 1.625-.63 2.357-.878l.044-.014.046.004c.033.004.066.004.098 0l.058-.005.053.024c.363.167 1.384.857 2.908 2.384 1.53 1.53 2.214 2.546 2.378 2.905l.035.076-.027.08zM25.487 35.825l-.364.364v-.019c-.998.95-2.104 1.78-3.294 2.475l-.29.17-.602-7.06.153-.055c3.056-1.1 6.248-3.062 9.23-5.674l.298-.261.052.394c.41 3.11-.19 4.663-5.183 9.666zm-8.14-4.195l-.099.009-2.576-2.564 4.623-4.624.15.147c1.495 1.465 2.928 3.03 4.256 4.647l.167.202-.232.122c-2.298 1.205-4.414 1.899-6.29 2.061zM11.44 25.84l.009-.1c.17-1.853.882-4.027 2.059-6.285l.12-.232.203.166c1.62 1.327 3.187 2.757 4.656 4.251l.147.15-4.618 4.625-2.576-2.575zm10.336-3.877l.15.151c2.667 2.691 4.27 4.516 4.834 5.26l.134.178-.183.126c-.632.437-1.27.843-1.897 1.207l-.171.1-.112-.163c-.625-.92-2.074-2.521-4.43-4.896l-.15-.15 1.825-1.813zm-2.48 1.166l-.151-.15c-2.334-2.334-3.933-3.784-4.89-4.435l-.165-.113.102-.172c.371-.625.782-1.261 1.22-1.891l.126-.181.176.132c.72.54 2.529 2.129 5.254 4.833l.152.15-1.825 1.827zm-7.962-.996l-7.058-.588.17-.292c.78-1.337 1.73-2.569 2.827-3.662 4.947-4.963 6.587-5.596 9.654-5.2l.394.052-.26.3c-2.577 2.963-4.591 6.244-5.672 9.237l-.055.153zM42.538.517c-2.303-2.305-16.834 3.45-23.662 10.276-.246.247-.485.496-.72.749l-.078.083-.112-.018c-4.148-.674-5.804-.24-11.352 5.321-1.185 1.187-2.716 3.081-3.46 4.842-.102.237.008.512.244.614.045.019.092.03.14.035l7.492.633-.07.248c-.246.88-.402 1.788-.464 2.698-.009.133.041.264.135.359l2.726 2.729-1.331 1.332c-.182.183-.182.479 0 .66.176.177.483.177.66 0l1.33-1.332 2.726 2.725c.088.09.205.138.329.138.933-.062 1.838-.222 2.713-.47l.248-.07.633 7.486c.022.256.249.446.505.424.048-.004.096-.016.14-.035 1.76-.745 3.651-2.278 4.836-3.464 5.544-5.547 5.981-7.206 5.325-11.36l-.018-.11.082-.077c.25-.237.503-.477.749-.723 3.24-3.244 6.369-8.266 8.585-13.779.192-.474.544-1.406.905-2.472l.131-.401c1.2-3.748 1.425-6.249.633-7.04zM10.242 32.374c-.125 0-.242.049-.33.137L.138 42.3c-.183.182-.183.479 0 .66.181.183.477.183.659 0l9.775-9.79c.182-.181.182-.478 0-.66-.088-.088-.205-.137-.33-.137" transform="translate(-885 -281) translate(885 281.75) translate(.212) rotate(11 -217.3 1601.515) rotate(-5 65.084 -6.897)"/>
                            <path d="M16.371 34.676c0-.125-.048-.242-.137-.33-.165-.166-.447-.178-.625-.03l-.034.036-5.497 5.504c-.182.182-.182.478 0 .66.182.182.478.182.66 0l5.496-5.51c.089-.088.137-.206.137-.33M7.237 27.53c0-.125-.049-.242-.137-.33-.165-.166-.447-.178-.625-.03l-.034.036L.944 32.71c-.182.182-.182.478 0 .66.181.182.478.182.66 0L7.1 27.86c.088-.088.137-.206.137-.33M11.295 35.547l-.15.15c-.091-.09-.21-.136-.33-.136-.12 0-.239.045-.33.136l-5.497 5.504c-.181.182-.181.478 0 .66.182.182.478.182.66 0l5.497-5.496c.09-.089.139-.206.14-.33 0-.125-.046-.243-.134-.331l.144-.157zM7.012 31.687l-.15.151c-.092-.091-.211-.137-.33-.137-.12 0-.24.046-.33.137L.705 37.34c-.182.183-.182.478 0 .66.182.182.478.182.66 0l5.496-5.496c.09-.088.14-.205.14-.33.001-.124-.046-.242-.134-.331l.145-.157zM29.672 17.059c-.976 0-1.895-.38-2.586-1.072-.69-.692-1.07-1.611-1.07-2.59 0-2.018 1.64-3.66 3.656-3.66 2.017 0 3.657 1.642 3.657 3.66-.012 2.026-1.652 3.66-3.657 3.662m.007-8.252l-.007-.213v.213c-1.226 0-2.378.478-3.244 1.346-.867.868-1.345 2.021-1.345 3.248 0 2.533 2.06 4.594 4.59 4.594 2.522 0 4.58-2.055 4.588-4.581.005-2.535-2.05-4.602-4.582-4.607" transform="translate(-885 -281) translate(885 281.75) translate(.212) rotate(11 -217.3 1601.515) rotate(-5 65.084 -6.897)"/>
                        </g>
                    </g>
                </g>
                <g>
                    <g transform="translate(-885 -281) translate(885 281.75) rotate(-4 1685.716 -1493.45)">
                        <g>
                            <use fill="#000" filter="url(#bxtidc5dga)" xlink:href="#1m0k5v209b"/>
                            <rect width="161.103" height="102.487" x=".358" y=".358" fill="#FFF" stroke="#D9D9D9" stroke-linejoin="square" stroke-width=".715" rx="7.152"/>
                        </g>
                        <rect width="104.498" height="9.242" x="16.136" y="14.248" fill="#D9D9D9" stroke="#979797" stroke-width=".795" opacity=".394" rx="4.621"/>
                        <rect width="55.707" height="6.161" x="16.136" y="28.111" fill="#D9D9D9" stroke="#979797" stroke-width=".795" opacity=".394" rx="3.081"/>
                        <g fill="#D9D9D9" stroke="#979797" stroke-width=".795" opacity=".394" transform="translate(16.136 78.172)">
                            <rect width="17.672" height="9.242" rx="4.621"/>
                            <rect width="17.672" height="9.242" x="21.514" rx="4.621"/>
                            <rect width="17.672" height="9.242" x="43.029" rx="4.621"/>
                        </g>
                        <path fill="#10357E" fill-rule="nonzero" d="M123.173 75.307l-4.836 11.945h-3.164l-2.405-9.519c-.157-.593-.261-.808-.706-1.051-.706-.405-1.908-.782-2.954-1.025l.079-.35h5.097c.654 0 1.23.431 1.386 1.213l1.255 6.93 3.11-8.143h3.138zm12.392 8.035c.026-3.155-4.236-3.317-4.183-4.719 0-.431.392-.89 1.28-.997.419-.054 1.622-.108 2.955.539l.523-2.535c-.706-.27-1.647-.539-2.798-.539-2.98 0-5.045 1.618-5.071 3.937-.026 1.725 1.49 2.669 2.614 3.235 1.176.593 1.542.971 1.542 1.483 0 .81-.94 1.16-1.803 1.16-1.517.027-2.38-.405-3.085-.755l-.55 2.615c.707.324 1.988.62 3.32.647 3.19.027 5.256-1.59 5.256-4.071zm7.816 3.91h2.771l-2.405-11.945h-2.562c-.575 0-1.072.35-1.28.863l-4.497 11.055h3.137l.627-1.78h3.843l.366 1.807zm-3.32-4.234l1.569-4.476.915 4.476h-2.484zm-12.6-7.711l-2.484 11.945h-2.98l2.483-11.945h2.98z"/>
                    </g>
                </g>
                <path stroke="#979797" stroke-dasharray="2.2" stroke-width="1.1" d="M104.703 231c-41.287-8.572-58.85-19.998-52.692-34.277 9.24-21.42 208.985-45.293 240.801-75.723" transform="translate(-885 -281) translate(885 281.75)"/>
            </g>
        </g>
    </g>
</svg>
