<svg xmlns="http://www.w3.org/2000/svg" width="30" height="31" viewBox="0 0 30 31">
    <g fill="none" fill-rule="evenodd">
        <g>
            <g>
                <path fill="#404040" d="M26.375 22.313c0 .448-.364.812-.813.812H4.438c-.448 0-.812-.364-.812-.813V7.874l10.904 7.784c.282.201.66.201.942 0l10.904-7.784v14.438zM24.977 6.874L15 14.001 5.023 6.875h19.954zm.585-1.625H4.438C3.091 5.25 2 6.341 2 7.688v14.625c0 1.346 1.091 2.437 2.438 2.437h21.125c1.346 0 2.437-1.091 2.437-2.438V7.688c0-1.346-1.091-2.437-2.438-2.437z" transform="translate(-1173 -30) translate(1173 30.5)"/>
            </g>
        </g>
    </g>
</svg>
