<svg xmlns="http://www.w3.org/2000/svg" xmlns:xlink="http://www.w3.org/1999/xlink" width="33" height="33" viewBox="0 0 33 33">
    <defs>
        <path id="wjqohgndxa" d="M0 17.173L23.641 17.173 23.641 0 0 0z"/>
    </defs>
    <g fill="none" fill-rule="evenodd">
        <g>
            <g>
                <g>
                    <path d="M0 0H32V32H0z" transform="translate(-16 -461) translate(.25 445.25) translate(16 16)"/>
                    <g transform="translate(-16 -461) translate(.25 445.25) translate(16 16) translate(4 7)">
                        <path fill="#404040" d="M16.827 9.948c.841 0 1.526.684 1.526 1.526 0 .836-.685 1.517-1.526 1.517-.837 0-1.517-.68-1.517-1.517 0-.842.68-1.526 1.517-1.526m0 3.763c1.238 0 2.245-1.004 2.245-2.237 0-1.238-1.007-2.246-2.245-2.246-1.234 0-2.237 1.008-2.237 2.246 0 1.233 1.003 2.237 2.237 2.237M20.292 9.958l.028-.001h1.074c.093-.007.187-.038.257-.108.072-.07.112-.164.112-.257 0-.092-.04-.186-.112-.256-.07-.07-.17-.108-.256-.108h-1.134c-.193.019-.347.205-.33.398.018.184.186.332.36.332M12.229 13.72H13.331c.094-.006.187-.038.258-.108.071-.07.112-.163.112-.257 0-.093-.04-.186-.111-.256-.071-.07-.158-.109-.257-.108h-1.135c-.193.018-.347.204-.329.398.018.183.186.331.36.331"/>
                        <mask id="voxjadgmdb" fill="#fff">
                            <use xlink:href="#wjqohgndxa"/>
                        </mask>
                        <path fill="#404040" d="M10.741 14.872h12.172V8.075H10.74v6.797zm.528 1.056c.1-.103.198-.213.294-.328h.458c-.245.12-.494.233-.752.328zm-2.301-2.655h1.045v1.963c0 .194.17.364.364.364h.12c-.468.42-.983.69-1.53.776v-3.103zm0-.762h1.045V8.968H8.968v3.543zm0-7.848h3.367c.262.811.43 1.722.514 2.684h-2.523l-.017.002c-.17.032-.3.192-.296.362v.495H8.968V4.663zm0-3.866c1.26.199 2.365 1.375 3.086 3.104H8.968V.797zm5.87 3.104h-1.955c-.41-1.08-.962-1.989-1.614-2.656 1.433.526 2.668 1.456 3.57 2.656zm1.45 3.446H13.62c-.077-.956-.234-1.864-.479-2.684h2.205c.473.812.788 1.721.941 2.684zM8.205 3.901H5.12C5.84 2.172 6.945.996 8.206.797V3.9zm0 4.305H4.258c.035-1.287.241-2.492.58-3.543h3.368v3.543zm0 4.305H4.839c-.34-1.052-.546-2.256-.58-3.543h3.947v3.543zm0 3.865c-1.26-.198-2.365-1.374-3.086-3.103h3.086v3.103zm-5.871-3.103H4.29c.411 1.08.962 1.988 1.614 2.655-1.432-.525-2.667-1.456-3.57-2.655zM.78 8.968h2.71c.032 1.28.223 2.477.541 3.543H1.828C1.215 11.459.843 10.255.78 8.968zm1.046-4.305h2.205c-.318 1.065-.509 2.263-.54 3.543H.781c.061-1.287.433-2.492 1.045-3.543zm4.077-3.418c-.652.667-1.203 1.576-1.614 2.656H2.335c.902-1.2 2.136-2.13 3.57-2.656zM17.07 7.347C16.464 3.2 12.899 0 8.587 0 3.852 0 0 3.852 0 8.587c0 4.735 3.852 8.586 8.587 8.586 1.839 0 3.54-.584 4.939-1.573h9.751c.194 0 .364-.17.364-.364V7.711c0-.194-.17-.364-.364-.364h-6.208z" mask="url(#voxjadgmdb)"/>
                    </g>
                </g>
            </g>
        </g>
    </g>
</svg>
