<svg xmlns="http://www.w3.org/2000/svg" width="33" height="33" viewBox="0 0 33 33">
    <g fill="none" fill-rule="evenodd">
        <g>
            <g>
                <g>
                    <g fill="#404040" fill-rule="nonzero">
                        <path d="M18.155 12.685c-.264 0-.478-.207-.478-.467v-7.23c0-.236-.195-.426-.435-.426H6.895c-.263 0-.477-.208-.477-.467 0-.256.214-.464.477-.464h10.347c.766 0 1.39.607 1.39 1.358v7.23c0 .259-.214.466-.477.466M16.954 15.14H6.607c-.766 0-1.39-.61-1.39-1.357V6.55c0-.256.214-.466.478-.466.263 0 .477.21.477.466v7.233c0 .234.195.424.435.424h10.347c.264 0 .477.21.477.467 0 .256-.213.466-.477.466" transform="translate(-16 -179) translate(.25 163.25) translate(16 16) translate(4 6)"/>
                        <path d="M14.7 8.16c-.691 0-1.253.55-1.253 1.226 0 .673.562 1.224 1.253 1.224h2.977V8.16H14.7zm3.455 3.38H14.7c-1.217 0-2.208-.967-2.208-2.154 0-1.19.99-2.157 2.208-2.157h3.455c.263 0 .476.207.476.466v3.38c0 .258-.213.465-.476.465zM19.953 18.757c-.072 0-.143-.017-.21-.047-.164-.078-.267-.241-.267-.419v-1.1h-2.522c-.263 0-.477-.208-.477-.467 0-.256.214-.466.477-.466h2.999c.263 0 .477.21.477.466v.615l2.165-1.644-2.165-1.643v.612c0 .259-.214.466-.477.466h-2.999c-.263 0-.477-.207-.477-.466 0-.257.214-.464.477-.464h2.522v-1.1c0-.178.103-.341.267-.42.163-.077.359-.057.503.052l3.42 2.596c.115.086.183.224.183.367s-.068.279-.184.368l-3.42 2.596c-.085.064-.188.098-.292.098M3.896 6.124c-.104 0-.207-.035-.292-.1L.184 3.43C.068 3.34 0 3.205 0 3.061c0-.143.068-.278.184-.367L3.604.098c.144-.109.339-.128.502-.052.163.079.267.242.267.42v1.1h2.522c.263 0 .477.207.477.466 0 .257-.214.464-.477.464H3.896c-.263 0-.477-.207-.477-.464v-.614L1.254 3.061 3.42 4.705v-.612c0-.26.214-.467.477-.467h2.999c.263 0 .477.208.477.467 0 .256-.214.464-.477.464H4.373v1.1c0 .178-.104.34-.267.42-.067.032-.138.047-.21.047" transform="translate(-16 -179) translate(.25 163.25) translate(16 16) translate(4 6)"/>
                    </g>
                    <path d="M0 0H32V32H0z" transform="translate(-16 -179) translate(.25 163.25) translate(16 16)"/>
                </g>
            </g>
        </g>
    </g>
</svg>
