<svg xmlns="http://www.w3.org/2000/svg" xmlns:xlink="http://www.w3.org/1999/xlink" width="21" height="20" viewBox="0 0 21 20">
    <defs>
        <path id="9xb6dwa95a" d="M0 0L18.333 0 18.333 18.327 0 18.327z"/>
    </defs>
    <g fill="none" fill-rule="evenodd">
        <g>
            <g>
                <g>
                    <g transform="translate(-899 -139) translate(425 116.5) translate(474.5 22.5) translate(.833 .833)">
                        <mask id="7a6pts9l2b" fill="#fff">
                            <use xlink:href="#9xb6dwa95a"/>
                        </mask>
                        <path fill="#000" stroke="#000" stroke-width=".5" d="M9.167 9.74l5.965 5.974c.162.161.426.161.588 0 .078-.08.12-.18.12-.29 0-.108-.042-.21-.12-.287L9.732 9.163l5.965-5.976c.164-.164.164-.413 0-.579-.156-.153-.42-.155-.576.001L9.156 8.584 3.192 2.61c-.156-.156-.42-.156-.575 0-.08.08-.124.183-.124.29 0 .107.044.209.123.288L8.58 9.162l-5.963 5.973c-.08.08-.123.183-.123.29 0 .107.044.21.123.289.162.161.426.161.588 0l5.963-5.975z" mask="url(#7a6pts9l2b)"/>
                    </g>
                </g>
            </g>
        </g>
    </g>
</svg>
