<svg xmlns="http://www.w3.org/2000/svg" width="33" height="33" viewBox="0 0 33 33">
    <g fill="none" fill-rule="evenodd">
        <g>
            <g>
                <g>
                    <g fill="#404040" fill-rule="nonzero">
                        <path d="M1.59.082C.718.082 0 .8 0 1.673v10.455c0 .873.717 1.59 1.59 1.59h4.092c.24.004.46-.214.46-.454 0-.24-.22-.458-.46-.454H1.59c-.386 0-.682-.297-.682-.682V3.49h18.182v8.637c0 .385-.296.682-.682.682H7.5c-.24-.004-.461.214-.461.454 0 .24.22.458.461.455h10.91c.873 0 1.59-.718 1.59-1.591V1.673c0-.873-.717-1.59-1.59-1.59H1.59zm0 .91h16.82c.385 0 .68.296.68.681v.91H.91v-.91c0-.385.295-.682.68-.682zm1.095 3.863c-.238.011-.445.238-.434.476.011.238.238.444.476.433H5c.24.004.461-.214.461-.454 0-.24-.22-.458-.461-.455H2.685zm4.318 0c-.238.011-.445.238-.433.476.01.238.237.444.475.433h4.091c.24.004.461-.214.461-.454 0-.24-.22-.458-.46-.455H7.002zM15 8.491c-.873 0-1.59.718-1.59 1.591 0 .874.717 1.591 1.59 1.591.248 0 .475-.076.682-.177.207.101.433.177.682.177.873 0 1.59-.717 1.59-1.59 0-.874-.717-1.592-1.59-1.592-.25 0-.475.076-.682.178-.208-.102-.433-.178-.682-.178zm0 .91c.154 0 .284.05.405.142.157.12.396.12.554 0 .12-.092.25-.143.405-.143.382 0 .681.3.681.682 0 .382-.3.682-.681.682-.155 0-.285-.05-.405-.142-.158-.12-.397-.12-.554 0-.12.092-.25.142-.405.142-.382 0-.682-.3-.682-.682 0-.382.3-.682.682-.682z" transform="translate(-16 -115) translate(.25 99.25) translate(16 16) translate(6 9)"/>
                    </g>
                    <path d="M0 0H32V32H0z" transform="translate(-16 -115) translate(.25 99.25) translate(16 16)"/>
                </g>
            </g>
        </g>
    </g>
</svg>
