<svg xmlns="http://www.w3.org/2000/svg" width="17" height="17" viewBox="0 0 17 17">
    <g fill="none" fill-rule="evenodd">
        <g fill="#D9D9D9" fill-rule="nonzero">
            <g>
                <g>
                    <g>
                        <path d="M0 6.658c0 3.673 2.988 6.658 6.657 6.658 1.69 0 3.237-.635 4.413-1.677l4.242 4.243c.079.079.18.118.285.118.105 0 .206-.04.285-.118.157-.157.157-.41 0-.567l-4.246-4.243c1.042-1.176 1.678-2.72 1.678-4.414C13.314 2.985 10.326 0 6.657 0 2.987 0 0 2.985 0 6.658zm12.511 0c0 3.228-2.627 5.856-5.854 5.856-3.227 0-5.854-2.628-5.854-5.856C.803 3.431 3.43.803 6.657.803c3.227 0 5.854 2.624 5.854 5.855z" transform="translate(-454 -236) translate(425 116.5) translate(17.5 104) translate(12 16)"/>
                    </g>
                </g>
            </g>
        </g>
    </g>
</svg>
